<svg xmlns="http://www.w3.org/2000/svg" viewBox="0 0 128 128" fill="none">
  <defs>
    <linearGradient id="bg" x1="0" y1="0" x2="1" y2="1">
      <stop offset="0%" stop-color="#2563eb"/>
      <stop offset="100%" stop-color="#1d4ed8"/>
    </linearGradient>
  </defs>
  <rect width="128" height="128" rx="28" fill="url(#bg)"/>
  <path d="M42 84c0-11.05 8.95-20 20-20 8.6 0 15.95 5.43 18.82 13H66.1c-1.7-1.2-3.78-1.9-6.02-1.9-5.7 0-10.32 4.62-10.32 10.32 0 5.15 3.78 9.42 8.72 10.22V98H46.8c-2.95-3.92-4.8-8.78-4.8-14z" fill="#ffffff" fill-opacity="0.95"/>
  <path d="M57.28 88.3c0-3.05 2.47-5.52 5.52-5.52s5.52 2.47 5.52 5.52-2.47 5.52-5.52 5.52-5.52-2.47-5.52-5.52z" fill="#2563eb"/>
  <path d="M58 24h12v56H58V24z" fill="#ffffff" fill-opacity="0.95"/>
  <path d="M70 24h12v36c0 6.63-5.37 12-12 12v-8c2.21 0 4-1.79 4-4V24z" fill="#ffffff" fill-opacity="0.85"/>
  <path d="M46 24h12v32c0 6.63-5.37 12-12 12v-8c2.21 0 4-1.79 4-4V24z" fill="#ffffff" fill-opacity="0.75"/>
</svg>
