<?xml version="1.0" encoding="UTF-8"?>
<svg xmlns="http://www.w3.org/2000/svg" viewBox="0 0 512 512">
<defs>
<linearGradient id="bg" x1="0" y1="0" x2="1" y2="1">
<stop offset="0%" stop-color="#0C0E18"/><stop offset="100%" stop-color="#05060D"/>
</linearGradient>
<linearGradient id="metal" x1="0" y1="0" x2="1" y2="1">
<stop offset="0%" stop-color="#F4EFE7"/><stop offset="50%" stop-color="#D9CCBA"/><stop offset="100%" stop-color="#BCA68B"/>
</linearGradient>
<linearGradient id="accent" x1="0" y1="0" x2="1" y2="1">
<stop offset="0%" stop-color="#C78A4A"/><stop offset="100%" stop-color="#8E4F28"/>
</linearGradient>
<linearGradient id="runway" x1="0" y1="0" x2="0" y2="1">
<stop offset="0%" stop-color="#EEE8DD"/><stop offset="100%" stop-color="#7D8594"/>
</linearGradient>
</defs>
<rect x="20" y="20" width="472" height="472" rx="88" fill="url(#bg)"/>
<rect x="20" y="20" width="472" height="472" rx="88" fill="none" stroke="#2A3040" stroke-width="2"/>
<path fill="url(#metal)" d="M210 110H320C387 110 430 152 430 214C430 276 387 318 320 318H285V278H320C362 278 389 252 389 214C389 176 362 150 320 150H210Z"/>
<path fill="url(#runway)" d="M150 402C192 334 232 284 256 250C235 303 214 352 194 402Z"/>
<path fill="#EFE9DF" d="M238 402C246 346 252 298 256 250C260 298 266 346 274 402Z"/>
<path fill="url(#accent)" d="M250 228L332 168L287 263L257 246L257 330L228 246Z"/>
</svg>