<svg xmlns="http://www.w3.org/2000/svg" viewBox="0 0 400 120" fill="none">
  <defs>
    <linearGradient id="grad" x1="0" y1="0" x2="1" y2="1">
      <stop offset="0%" stop-color="#2563eb"/>
      <stop offset="100%" stop-color="#7c3aed"/>
    </linearGradient>
  </defs>
  <!-- Icon -->
  <rect x="8" y="20" width="80" height="80" rx="18" fill="url(#grad)"/>
  <path d="M30 76c0-8.84 7.16-16 16-16 6.88 0 12.76 4.34 15.06 10.4H49.6c-1.36-.96-3.02-1.52-4.82-1.52-4.56 0-8.26 3.7-8.26 8.26 0 4.12 3.02 7.54 6.98 8.18v2.88H34.2c-2.36-3.14-3.84-7.02-3.84-11.2z" fill="#ffffff" fill-opacity="0.95"/>
  <circle cx="49.4" cy="72.6" r="4.42" fill="#2563eb"/>
  <path d="M43 37h9.6v44.8H43V37z" fill="#ffffff" fill-opacity="0.95"/>
  <path d="M52.6 37h9.6v28.8c0 5.3-4.3 9.6-9.6 9.6v-6.4c1.77 0 3.2-1.43 3.2-3.2V37z" fill="#ffffff" fill-opacity="0.85"/>
  <path d="M33.4 37h9.6v25.6c0 5.3-4.3 9.6-9.6 9.6v-6.4c1.77 0 3.2-1.43 3.2-3.2V37z" fill="#ffffff" fill-opacity="0.75"/>
  <!-- Wordmark -->
  <text x="108" y="64" font-family="system-ui, -apple-system, 'Segoe UI', Roboto, sans-serif" font-size="40" font-weight="700" fill="#0f172a" letter-spacing="-0.02em">JobPilot</text>
  <text x="108" y="88" font-family="system-ui, -apple-system, 'Segoe UI', Roboto, sans-serif" font-size="14" fill="#64748b" letter-spacing="0.06em" text-transform="uppercase">AI-Powered Job Application Tracker</text>
</svg>
